<?xml version="1.0" standalone="no"?>
<!DOCTYPE svg PUBLIC "-//W3C//DTD SVG 20010904//EN"
 "http://www.w3.org/TR/2001/REC-SVG-20010904/DTD/svg10.dtd">
<svg version="1.0" xmlns="http://www.w3.org/2000/svg"
 width="300.000000pt" height="300.000000pt" viewBox="0 0 300.000000 300.000000"
 preserveAspectRatio="xMidYMid meet">
<metadata>
Created by potrace 1.10, written by Peter Selinger 2001-2011
</metadata>
<g transform="translate(0.000000,300.000000) scale(0.100000,-0.100000)"
fill="#000000" stroke="none">
<path d="M1867 2212 c-21 -23 -21 -31 -2 -52 13 -14 -1 -50 -136 -340 -205
-442 -228 -490 -234 -490 -7 0 -75 143 -168 350 -36 80 -79 174 -95 210 -17
36 -53 117 -82 180 -28 63 -59 123 -67 133 -22 24 -50 21 -67 -5 -13 -20 -47
-264 -86 -618 -25 -232 -52 -416 -63 -439 -8 -16 -28 -31 -56 -41 -57 -20 -72
-42 -47 -69 18 -20 30 -21 183 -21 154 0 164 1 185 22 l21 21 -36 31 c-44 37
-45 44 -22 301 9 94 18 204 21 245 4 41 9 91 13 110 l7 35 26 -50 c14 -27 59
-126 101 -220 41 -93 88 -199 105 -235 49 -106 92 -211 92 -224 0 -7 11 -23
24 -35 45 -42 59 -22 196 279 29 63 71 156 94 205 23 50 71 154 106 232 36 78
69 142 73 143 4 0 7 -181 5 -402 -3 -396 -3 -404 -26 -453 -46 -99 -108 -139
-215 -138 -98 2 -126 -34 -64 -81 24 -18 43 -21 120 -21 78 0 100 4 148 26
113 53 184 150 208 283 7 38 11 236 11 531 0 463 0 473 21 499 11 14 28 26 38
26 19 0 51 30 51 47 0 5 -8 17 -18 26 -16 14 -44 17 -184 17 -147 0 -167 -2
-181 -18z m-710 -240 c56 -125 143 -317 193 -427 50 -110 100 -222 112 -250
12 -27 24 -53 27 -57 5 -6 138 274 386 815 40 86 58 91 70 17 12 -73 -12 -144
-151 -447 -75 -164 -168 -365 -205 -448 -38 -82 -73 -151 -78 -153 -5 -2 -16
21 -25 51 -9 30 -95 230 -191 445 -96 215 -175 396 -175 401 0 6 -4 11 -10 11
-5 0 -10 -24 -10 -52 0 -29 -14 -197 -30 -373 -37 -400 -37 -410 -6 -430 14
-9 32 -15 42 -13 9 2 19 -3 21 -9 4 -10 -36 -13 -176 -13 -154 0 -181 2 -181
15 0 11 11 15 41 15 31 0 47 6 69 28 34 35 30 13 81 442 61 513 78 655 78 658
5 18 32 -34 118 -226z m1073 211 c0 -8 -12 -13 -31 -13 -38 0 -65 -14 -81 -43
-10 -17 -14 -148 -18 -547 l-5 -525 -26 -56 c-38 -80 -88 -131 -161 -165 -52
-23 -76 -28 -138 -27 -76 0 -130 14 -130 33 0 6 22 7 60 3 155 -16 260 77 289
258 7 38 11 253 11 527 0 394 -2 467 -15 492 -18 35 -43 50 -84 50 -19 0 -31
5 -31 13 0 10 40 13 180 13 140 0 180 -3 180 -13z"/>
</g>
</svg>
